<?xml version="1.0" encoding="UTF-8" standalone="no"?>
<!-- Created with Inkscape (http://www.inkscape.org/) -->

<svg
   xmlns:dc="http://purl.org/dc/elements/1.1/"
   xmlns:cc="http://creativecommons.org/ns#"
   xmlns:rdf="http://www.w3.org/1999/02/22-rdf-syntax-ns#"
   xmlns:svg="http://www.w3.org/2000/svg"
   xmlns="http://www.w3.org/2000/svg"
   xmlns:sodipodi="http://sodipodi.sourceforge.net/DTD/sodipodi-0.dtd"
   xmlns:inkscape="http://www.inkscape.org/namespaces/inkscape"
   width="24"
   height="24"
   id="svg2"
   version="1.1"
   inkscape:version="0.48.4 r9939"
   sodipodi:docname="block-selected.svg">
  <defs
     id="defs4" />
  <sodipodi:namedview
     id="base"
     pagecolor="#ffffff"
     bordercolor="#666666"
     borderopacity="1.0"
     inkscape:pageopacity="0.0"
     inkscape:pageshadow="2"
     inkscape:zoom="22.627417"
     inkscape:cx="17.26343"
     inkscape:cy="12.654369"
     inkscape:document-units="px"
     inkscape:current-layer="layer1"
     showgrid="true">
    <inkscape:grid
       type="xygrid"
       id="grid2985"
       empspacing="4"
       visible="true"
       enabled="true"
       snapvisiblegridlinesonly="true" />
  </sodipodi:namedview>
  <metadata
     id="metadata7">
    <rdf:RDF>
      <cc:Work
         rdf:about="">
        <dc:format>image/svg+xml</dc:format>
        <dc:type
           rdf:resource="http://purl.org/dc/dcmitype/StillImage" />
        <dc:title />
      </cc:Work>
    </rdf:RDF>
  </metadata>
  <g
     inkscape:label="Layer 1"
     inkscape:groupmode="layer"
     id="layer1"
     transform="translate(0,-1028.3622)">
    <path
       id="path4246"
       d="m 6.8752266,1035.3314 a 1.0001,1.0001 0 0 0 -0.59375,1.7188 l 4.2812504,4.3125 -4.2812504,4.2812 a 1.016466,1.016466 0 1 0 1.4375,1.4375 l 4.2812504,-4.2812 4.28125,4.25 a 1.0054956,1.0054956 0 1 0 1.4375,-1.4063 l -4.28125,-4.2812 4.28125,-4.2813 a 1.0001,1.0001 0 0 0 -0.84375,-1.7187 1.0001,1.0001 0 0 0 -0.59375,0.2812 l -4.28125,4.2813 -4.2812504,-4.2813 a 1.0001,1.0001 0 0 0 -0.84375,-0.3125 z"
       style="font-size:medium;font-style:normal;font-variant:normal;font-weight:normal;font-stretch:normal;text-indent:0;text-align:start;text-decoration:none;line-height:normal;letter-spacing:normal;word-spacing:normal;text-transform:none;direction:ltr;block-progression:tb;writing-mode:lr-tb;text-anchor:start;baseline-shift:baseline;color:#000000;fill:#ffffff;fill-opacity:1;stroke:none;stroke-width:2;marker:none;visibility:visible;display:inline;overflow:visible;enable-background:accumulate;font-family:Sans;-inkscape-font-specification:Sans;opacity:1.0"
       inkscape:connector-curvature="0" />
    <path
       style="font-size:medium;font-style:normal;font-variant:normal;font-weight:normal;font-stretch:normal;text-indent:0;text-align:start;text-decoration:none;line-height:normal;letter-spacing:normal;word-spacing:normal;text-transform:none;direction:ltr;block-progression:tb;writing-mode:lr-tb;text-anchor:start;baseline-shift:baseline;color:#000000;fill:#aa2200;fill-opacity:1;stroke:none;stroke-width:2;marker:none;visibility:visible;display:inline;overflow:visible;enable-background:accumulate;font-family:Sans;-inkscape-font-specification:Sans"
       d="M 6.875 5.96875 A 1.0001 1.0001 0 0 0 6.28125 7.6875 L 10.5625 12 L 6.28125 16.28125 A 1.016466 1.016466 0 1 0 7.71875 17.71875 L 12 13.4375 L 16.28125 17.6875 A 1.0054956 1.0054956 0 1 0 17.71875 16.28125 L 13.4375 12 L 17.71875 7.71875 A 1.0001 1.0001 0 0 0 16.875 6 A 1.0001 1.0001 0 0 0 16.28125 6.28125 L 12 10.5625 L 7.71875 6.28125 A 1.0001 1.0001 0 0 0 6.875 5.96875 z "
       transform="translate(0,1028.3622)"
       id="path3816" />
  </g>
</svg>
