<?xml version="1.0" encoding="UTF-8" standalone="no"?>
<svg
   xmlns:dc="http://purl.org/dc/elements/1.1/"
   xmlns:cc="http://creativecommons.org/ns#"
   xmlns:rdf="http://www.w3.org/1999/02/22-rdf-syntax-ns#"
   xmlns:svg="http://www.w3.org/2000/svg"
   xmlns="http://www.w3.org/2000/svg"
   xmlns:sodipodi="http://sodipodi.sourceforge.net/DTD/sodipodi-0.dtd"
   xmlns:inkscape="http://www.inkscape.org/namespaces/inkscape"
   viewBox="0 0 16 16"
   id="svg3004"
   version="1.1"
   inkscape:version="0.48.4 r9939"
   width="100%"
   height="100%"
   sodipodi:docname="icon-16.svg">
  <metadata
     id="metadata3020">
    <rdf:RDF>
      <cc:Work
         rdf:about="">
        <dc:format>image/svg+xml</dc:format>
        <dc:type
           rdf:resource="http://purl.org/dc/dcmitype/StillImage" />
        <dc:title>HTML5 Logo Badge</dc:title>
      </cc:Work>
    </rdf:RDF>
  </metadata>
  <defs
     id="defs3018" />
  <sodipodi:namedview
     pagecolor="#ffffff"
     bordercolor="#666666"
     borderopacity="1"
     objecttolerance="10"
     gridtolerance="10"
     guidetolerance="10"
     inkscape:pageopacity="0"
     inkscape:pageshadow="2"
     inkscape:window-width="640"
     inkscape:window-height="480"
     id="namedview3016"
     showgrid="true"
     inkscape:zoom="22.627417"
     inkscape:cx="14.215275"
     inkscape:cy="8.3558288"
     inkscape:current-layer="svg3004"
     inkscape:object-nodes="true"
     inkscape:snap-smooth-nodes="true"
     inkscape:snap-bbox="true"
     inkscape:snap-global="true">
    <inkscape:grid
       type="xygrid"
       id="grid3041"
       empspacing="4"
       visible="true"
       enabled="true"
       snapvisiblegridlinesonly="true" />
  </sodipodi:namedview>
  <title
     id="title3006">HTML5 Logo Badge</title>
  <path
     d="M 2.9550781,13.578128 1.8339844,1 14.166016,1 13.04492,13.578128 7.9863284,15"
     id="path4022"
     inkscape:connector-curvature="0"
     style="fill:#848484;fill-opacity:1" />
  <path
     d="m 8.0136716,13.906251 4.0742194,-1.121097 0.957029,-10.7734357 -5.0312484,0"
     id="path4024"
     inkscape:connector-curvature="0"
     style="fill:#a8a8a8;fill-opacity:1" />
  <path
     d="m 8.0136716,6.6875004 -2.050781,0 -0.1367189,-1.5859377 2.1874999,0 0,-1.5312498 -0.027343,0 -3.8554689,0 0.027344,0.4101556 0.3828124,4.2656249 3.4726561,0 z m 0,4.0195316 -0.027343,0 -1.7226565,-0.464845 -0.1093751,-1.2304687 -0.8203122,0 -0.7109377,0 0.1914064,2.4335947 3.1718751,0.875 0.027343,0 z"
     id="path4026"
     inkscape:connector-curvature="0"
     style="fill:#ebebeb" />
  <path
     d="m 7.9863284,6.6875004 0,1.558593 1.9140622,0 -0.1914067,1.9960936 -1.7226555,0.464845 0,1.613281 3.1718736,-0.875 0.02734,-0.273437 0.355469,-4.0742199 0.05469,-0.4101557 -0.437501,0 z m 0,-3.1171875 0,0.9570303 0,0.5742195 0,0 3.7460926,0 0,0 0,0 0.02734,-0.3281246 0.08203,-0.7929696 0.02734,-0.4101556 z"
     id="path4028"
     inkscape:connector-curvature="0"
     style="fill:#ffffff;fill-opacity:1" />
  <path
     style="fill:#e34f26"
     inkscape:connector-curvature="0"
     id="path3873"
     d="M 31.272727,138.98893 24,57.39246 l 80,0 -7.272737,81.59647 -32.815953,9.22393" />
  <path
     style="fill:#ef652a"
     inkscape:connector-curvature="0"
     id="path3875"
     d="m 64.08869,141.11752 26.430157,-7.27274 6.208416,-69.88913 -32.638573,0" />
  <path
     style="fill:#ebebeb"
     inkscape:connector-curvature="0"
     id="path3877"
     d="m 64.08869,94.28825 -13.303768,0 L 49.898003,84 l 14.190687,0 0,-9.93348 -0.17738,0 -25.011088,0 0.177383,2.66075 2.48337,27.67184 22.527715,0 z m 0,26.07539 -0.17738,0 -11.175168,-3.01553 -0.709535,-7.98226 -5.321506,0 -4.611975,0 1.241686,15.78714 20.576498,5.67628 0.17738,0 z" />
  <path
     style="fill:#ffffff"
     inkscape:connector-curvature="0"
     id="path3879"
     d="m 63.91131,94.28825 0,10.11086 12.416848,0 -1.241686,12.949 -11.175162,3.01553 0,10.46563 20.576492,-5.67628 0.177388,-1.77383 2.305984,-26.43016 0.354767,-2.66075 -2.838139,0 z m 0,-20.22173 0,6.20842 0,3.72506 0,0 24.301545,0 0,0 0,0 0.177388,-2.1286 0.532148,-5.14413 0.177387,-2.66075 z" />
  <path
     style="font-size:medium;font-style:normal;font-variant:normal;font-weight:normal;font-stretch:normal;text-indent:0;text-align:start;text-decoration:none;line-height:normal;letter-spacing:normal;word-spacing:normal;text-transform:none;direction:ltr;block-progression:tb;writing-mode:lr-tb;text-anchor:start;baseline-shift:baseline;color:#000000;fill:#e34f26;fill-opacity:1;stroke:none;stroke-width:1.79999995;marker:none;visibility:visible;display:inline;overflow:visible;enable-background:accumulate;font-family:Sans;-inkscape-font-specification:Sans"
     d="M 1.625 0.375 L 0.375 1.625 L 6.75 8 L 0.375 14.375 L 1.625 15.625 L 8 9.25 L 14.375 15.625 L 15.625 14.375 L 9.25 8 L 15.625 1.625 L 14.375 0.375 L 8 6.75 L 1.625 0.375 z "
     id="path3999" />
</svg>
