<?xml version="1.0" encoding="UTF-8" standalone="no"?>
<!-- Created with Inkscape (http://www.inkscape.org/) -->

<svg
   xmlns:dc="http://purl.org/dc/elements/1.1/"
   xmlns:cc="http://creativecommons.org/ns#"
   xmlns:rdf="http://www.w3.org/1999/02/22-rdf-syntax-ns#"
   xmlns:svg="http://www.w3.org/2000/svg"
   xmlns="http://www.w3.org/2000/svg"
   xmlns:sodipodi="http://sodipodi.sourceforge.net/DTD/sodipodi-0.dtd"
   xmlns:inkscape="http://www.inkscape.org/namespaces/inkscape"
   width="16"
   height="16"
   id="svg2"
   version="1.1"
   inkscape:version="0.48.4 r9939"
   sodipodi:docname="16.svg">
  <defs
     id="defs4">
    <linearGradient
       id="linearGradient3836">
      <stop
         style="stop-color:#c5c5c5;stop-opacity:1;"
         offset="0"
         id="stop3838" />
      <stop
         style="stop-color:#a2a2a2;stop-opacity:1;"
         offset="1"
         id="stop3840" />
    </linearGradient>
    <linearGradient
       id="linearGradient3828">
      <stop
         style="stop-color:#e9e9e9;stop-opacity:1;"
         offset="0"
         id="stop3830" />
      <stop
         id="stop3844"
         offset="0.30718955"
         style="stop-color:#f3f3f3;stop-opacity:1;" />
      <stop
         style="stop-color:#ffffff;stop-opacity:1;"
         offset="1"
         id="stop3832" />
    </linearGradient>
  </defs>
  <sodipodi:namedview
     id="base"
     pagecolor="#ffffff"
     bordercolor="#666666"
     borderopacity="1.0"
     inkscape:pageopacity="0.0"
     inkscape:pageshadow="2"
     inkscape:zoom="16"
     inkscape:cx="10.645771"
     inkscape:cy="6.9056272"
     inkscape:document-units="px"
     inkscape:current-layer="layer1"
     showgrid="true"
     inkscape:snap-bbox="true"
     showguides="false"
     inkscape:guide-bbox="true"
     inkscape:snap-global="false">
    <inkscape:grid
       type="xygrid"
       id="grid2985"
       empspacing="4"
       visible="true"
       enabled="true"
       snapvisiblegridlinesonly="true" />
    <sodipodi:guide
       orientation="1,0"
       position="64,-16"
       id="guide3869" />
    <sodipodi:guide
       orientation="1,0"
       position="32,-48"
       id="guide3871" />
    <sodipodi:guide
       orientation="1,0"
       position="96,-144"
       id="guide3873" />
    <sodipodi:guide
       orientation="0,1"
       position="72,120"
       id="guide3875" />
    <sodipodi:guide
       orientation="0,1"
       position="17.125,-11.3125"
       id="guide3877" />
  </sodipodi:namedview>
  <metadata
     id="metadata7">
    <rdf:RDF>
      <cc:Work
         rdf:about="">
        <dc:format>image/svg+xml</dc:format>
        <dc:type
           rdf:resource="http://purl.org/dc/dcmitype/StillImage" />
        <dc:title></dc:title>
      </cc:Work>
    </rdf:RDF>
  </metadata>
  <g
     inkscape:label="Layer 1"
     inkscape:groupmode="layer"
     id="layer1"
     transform="translate(0,-1036.3622)">
    <path
       sodipodi:nodetypes="ccccc"
       inkscape:connector-curvature="0"
       id="path3998"
       d="m 4,1039.6747 0,11 c 0,2.25 8,2.25 8,0 l 0,-11 c 0,-2 -8,-2 -8,0 z"
       style="fill:#ffffff;fill-opacity:1;stroke:none" />
    <path
       style="fill:#222222;fill-opacity:1;stroke:none"
       d="m 4,1038.8622 0,11 c 0,2.25 8,2.25 8,0 l 0,-11 c 0,-2 -8,-2 -8,0 z"
       id="path3879"
       inkscape:connector-curvature="0"
       sodipodi:nodetypes="ccccc" />
    <rect
       style="fill:#dddddd;fill-opacity:1;fill-rule:nonzero;stroke:none"
       id="rect3947"
       width="6"
       height="9.9998608"
       x="5"
       y="1039.3622"
       rx="0"
       ry="0" />
    <path
       style="fill:#bb0000;fill-opacity:1;stroke:none"
       d="m 5,1042.3622 0.25,0.875 0.75,0.125 0.15625,0.8125 L 7,1044.3622 6.1875,1044.6434 6,1045.3622 5.2421875,1045.6044 5,1046.3622 l 0,3 0.2578125,-0.7578 L 6,1048.3622 6.25,1047.6278 7,1047.3622 7.2265625,1046.5263 8,1046.3622 l 0.71875,0.1719 0.28125,0.8281 0.78125,0.2344 0.21875,0.7656 0.796875,0.2031 0.203125,0.7969 0,-3 -0.242187,-0.8047 L 10,1045.3622 9.796875,1044.581 9,1044.3622 9.828125,1044.1434 10,1043.3622 l 0.828125,-0.25 0.171875,-0.75 0,-3 -0.1875,0.7656 L 10,1040.3622 9.8125,1041.1591 9,1041.3622 8.7890625,1042.12 8,1042.3622 7.171875,1042.1434 7,1041.3622 6.1796875,1041.1356 6,1040.3622 5.2578125,1040.1044 5,1039.3622 z"
       id="path3957"
       inkscape:connector-curvature="0"
       sodipodi:nodetypes="ccccccccccccccccccccccccccccccccccccccccccccc" />
    <rect
       style="fill:#ffffff;fill-opacity:1;fill-rule:nonzero;stroke:none"
       id="rect3186"
       width="2"
       height="2"
       x="23"
       y="1007.3622" />
  </g>
</svg>
