<?xml version="1.0" encoding="UTF-8" standalone="no"?>
<svg
   xmlns:dc="http://purl.org/dc/elements/1.1/"
   xmlns:cc="http://creativecommons.org/ns#"
   xmlns:rdf="http://www.w3.org/1999/02/22-rdf-syntax-ns#"
   xmlns:svg="http://www.w3.org/2000/svg"
   xmlns="http://www.w3.org/2000/svg"
   xmlns:sodipodi="http://sodipodi.sourceforge.net/DTD/sodipodi-0.dtd"
   xmlns:inkscape="http://www.inkscape.org/namespaces/inkscape"
   viewBox="0 0 19 19"
   id="svg3004"
   version="1.1"
   inkscape:version="0.48.4 r9939"
   width="100%"
   height="100%"
   sodipodi:docname="icon-19-blocking.svg">
  <metadata
     id="metadata3020">
    <rdf:RDF>
      <cc:Work
         rdf:about="">
        <dc:format>image/svg+xml</dc:format>
        <dc:type
           rdf:resource="http://purl.org/dc/dcmitype/StillImage" />
        <dc:title>HTML5 Logo Badge</dc:title>
      </cc:Work>
    </rdf:RDF>
  </metadata>
  <defs
     id="defs3018" />
  <sodipodi:namedview
     pagecolor="#ffffff"
     bordercolor="#666666"
     borderopacity="1"
     objecttolerance="10"
     gridtolerance="10"
     guidetolerance="10"
     inkscape:pageopacity="0"
     inkscape:pageshadow="2"
     inkscape:window-width="640"
     inkscape:window-height="480"
     id="namedview3016"
     showgrid="true"
     inkscape:zoom="16"
     inkscape:cx="19.149955"
     inkscape:cy="7.1448848"
     inkscape:current-layer="svg3004"
     inkscape:object-nodes="true"
     inkscape:snap-smooth-nodes="true"
     inkscape:snap-bbox="true"
     inkscape:snap-global="true">
    <inkscape:grid
       type="xygrid"
       id="grid3041"
       empspacing="4"
       visible="true"
       enabled="true"
       snapvisiblegridlinesonly="true" />
  </sodipodi:namedview>
  <title
     id="title3006">HTML5 Logo Badge</title>
  <path
     d="M 3.461115,16.0563 2.1191406,1 16.880859,1 15.538883,16.0563 9.4836344,17.758315"
     id="path4022"
     inkscape:connector-curvature="0"
     style="fill:#848484;fill-opacity:1" />
  <path
     d="m 9.5163648,16.449071 4.8769342,-1.341979 1.145584,-12.8960424 -6.0225182,0"
     id="path4024"
     inkscape:connector-curvature="0"
     style="fill:#a8a8a8;fill-opacity:1" />
  <path
     d="m 9.5163648,7.8080656 -2.4548307,0 -0.1636556,-1.8984031 2.6184863,0 0,-1.8329403 -0.032731,0 -4.6150828,0 0.03273,0.4909655 0.4582349,5.1060482 4.1568474,0 z m 0,4.8114694 -0.032731,0 -2.0620585,-0.55643 -0.1309246,-1.472899 -0.981932,0 -0.8510083,0 0.2291177,2.913069 3.7968057,1.047393 0.032731,0 z"
     id="path4026"
     inkscape:connector-curvature="0"
     style="fill:#ebebeb" />
  <path
     d="m 9.4836344,7.8080656 0,1.8656703 2.2911746,0 -0.229118,2.3893691 -2.0620566,0.55643 0,1.931133 3.7968036,-1.047393 0.03274,-0.327312 0.425503,-4.8769319 0.06545,-0.4909655 -0.523698,0 z m 0,-3.7313434 0,1.1455867 0,0.6873536 0,0 4.4841566,0 0,0 0,0 0.03272,-0.3927724 0.0982,-0.9492024 0.03274,-0.4909655 z"
     id="path4028"
     inkscape:connector-curvature="0"
     style="fill:#ffffff;fill-opacity:1" />
  <path
     style="fill:#e34f26"
     inkscape:connector-curvature="0"
     id="path3873"
     d="M 31.272727,141.98893 24,60.39246 l 80,0 -7.272737,81.59647 -32.815953,9.22393" />
  <path
     style="fill:#ef652a"
     inkscape:connector-curvature="0"
     id="path3875"
     d="m 64.08869,144.11752 26.430157,-7.27274 6.208416,-69.88913 -32.638573,0" />
  <path
     style="fill:#ebebeb"
     inkscape:connector-curvature="0"
     id="path3877"
     d="m 64.08869,97.28825 -13.303768,0 L 49.898003,87 l 14.190687,0 0,-9.93348 -0.17738,0 -25.011088,0 0.177383,2.66075 2.48337,27.67184 22.527715,0 z m 0,26.07539 -0.17738,0 -11.175168,-3.01553 -0.709535,-7.98226 -5.321506,0 -4.611975,0 1.241686,15.78714 20.576498,5.67628 0.17738,0 z" />
  <path
     style="fill:#ffffff"
     inkscape:connector-curvature="0"
     id="path3879"
     d="m 63.91131,97.28825 0,10.11086 12.416848,0 -1.241686,12.949 -11.175162,3.01553 0,10.46563 20.576492,-5.67628 0.177388,-1.77383 2.305984,-26.43016 0.354767,-2.66075 -2.838139,0 z m 0,-20.22173 0,6.20842 0,3.72506 0,0 24.301545,0 0,0 0,0 0.177388,-2.1286 0.532148,-5.14413 0.177387,-2.66075 z" />
  <path
     style="font-size:medium;font-style:normal;font-variant:normal;font-weight:normal;font-stretch:normal;text-indent:0;text-align:start;text-decoration:none;line-height:normal;letter-spacing:normal;word-spacing:normal;text-transform:none;direction:ltr;block-progression:tb;writing-mode:lr-tb;text-anchor:start;baseline-shift:baseline;color:#000000;fill:#e34f26;fill-opacity:1;stroke:none;stroke-width:2;marker:none;visibility:visible;display:inline;overflow:visible;enable-background:accumulate;font-family:Sans;-inkscape-font-specification:Sans"
     d="M 1.71875 0.28125 L 0.28125 1.71875 L 8.0625 9.5 L 0.28125 17.28125 L 1.71875 18.71875 L 9.5 10.9375 L 17.28125 18.71875 L 18.71875 17.28125 L 10.9375 9.5 L 18.71875 1.71875 L 17.28125 0.28125 L 9.5 8.0625 L 1.71875 0.28125 z "
     id="path4068" />
</svg>
