<?xml version="1.0" encoding="UTF-8" standalone="no"?>
<svg
   xmlns:dc="http://purl.org/dc/elements/1.1/"
   xmlns:cc="http://creativecommons.org/ns#"
   xmlns:rdf="http://www.w3.org/1999/02/22-rdf-syntax-ns#"
   xmlns:svg="http://www.w3.org/2000/svg"
   xmlns="http://www.w3.org/2000/svg"
   xmlns:sodipodi="http://sodipodi.sourceforge.net/DTD/sodipodi-0.dtd"
   xmlns:inkscape="http://www.inkscape.org/namespaces/inkscape"
   viewBox="0 0 19 19"
   id="svg3004"
   version="1.1"
   inkscape:version="0.48.4 r9939"
   width="100%"
   height="100%"
   sodipodi:docname="icon-19-disabled.svg">
  <metadata
     id="metadata3020">
    <rdf:RDF>
      <cc:Work
         rdf:about="">
        <dc:format>image/svg+xml</dc:format>
        <dc:type
           rdf:resource="http://purl.org/dc/dcmitype/StillImage" />
        <dc:title>HTML5 Logo Badge</dc:title>
      </cc:Work>
    </rdf:RDF>
  </metadata>
  <defs
     id="defs3018" />
  <sodipodi:namedview
     pagecolor="#ffffff"
     bordercolor="#666666"
     borderopacity="1"
     objecttolerance="10"
     gridtolerance="10"
     guidetolerance="10"
     inkscape:pageopacity="0"
     inkscape:pageshadow="2"
     inkscape:window-width="640"
     inkscape:window-height="480"
     id="namedview3016"
     showgrid="true"
     inkscape:zoom="22.627417"
     inkscape:cx="18.555558"
     inkscape:cy="9.6841089"
     inkscape:current-layer="svg3004"
     inkscape:object-nodes="true"
     inkscape:snap-smooth-nodes="true"
     inkscape:snap-bbox="true"
     inkscape:snap-global="true">
    <inkscape:grid
       type="xygrid"
       id="grid3041"
       empspacing="4"
       visible="true"
       enabled="true"
       snapvisiblegridlinesonly="true" />
  </sodipodi:namedview>
  <title
     id="title3006">HTML5 Logo Badge</title>
  <path
     d="M 3.3636363,16.299337 2,1 17,1 15.636362,16.299337 9.4833702,18.028825"
     id="path4022"
     inkscape:connector-curvature="0"
     style="fill:#848484;fill-opacity:1" />
  <path
     d="m 9.516629,16.698447 4.955656,-1.36364 1.164077,-13.1042088 -6.119733,0"
     id="path4024"
     inkscape:connector-curvature="0"
     style="fill:#a8a8a8;fill-opacity:1" />
  <path
     d="m 9.516629,7.9179603 -2.4944563,0 -0.1662972,-1.9290468 2.6607535,0 0,-1.8625273 -0.03326,0 -4.6895787,0 0.033259,0.4988905 0.4656317,5.1884692 4.2239465,0 z m 0,4.8891347 -0.03326,0 -2.0953439,-0.565411 -0.133038,-1.496674 -0.9977821,0 -0.8647452,0 0.2328161,2.96009 3.8580931,1.064301 0.03326,0 z"
     id="path4026"
     inkscape:connector-curvature="0"
     style="fill:#ebebeb" />
  <path
     d="m 9.4833702,7.9179603 0,1.8957856 2.3281588,0 -0.232816,2.4279381 -2.0953428,0.565411 0,1.962306 3.8580908,-1.064301 0.03327,-0.332595 0.432372,-4.9556542 0.06651,-0.4988905 -0.532151,0 z m 0,-3.7915741 0,1.1640786 0,0.6984487 0,0 4.5565388,0 0,0 0,0 0.03325,-0.3991125 0.09979,-0.9645243 0.03327,-0.4988905 z"
     id="path4028"
     inkscape:connector-curvature="0"
     style="fill:#ffffff;fill-opacity:1" />
  <path
     style="fill:#e34f26"
     inkscape:connector-curvature="0"
     id="path3873"
     d="M 31.272727,141.98893 24,60.39246 l 80,0 -7.272737,81.59647 -32.815953,9.22393" />
  <path
     style="fill:#ef652a"
     inkscape:connector-curvature="0"
     id="path3875"
     d="m 64.08869,144.11752 26.430157,-7.27274 6.208416,-69.88913 -32.638573,0" />
  <path
     style="fill:#ebebeb"
     inkscape:connector-curvature="0"
     id="path3877"
     d="m 64.08869,97.28825 -13.303768,0 L 49.898003,87 l 14.190687,0 0,-9.93348 -0.17738,0 -25.011088,0 0.177383,2.66075 2.48337,27.67184 22.527715,0 z m 0,26.07539 -0.17738,0 -11.175168,-3.01553 -0.709535,-7.98226 -5.321506,0 -4.611975,0 1.241686,15.78714 20.576498,5.67628 0.17738,0 z" />
  <path
     style="fill:#ffffff"
     inkscape:connector-curvature="0"
     id="path3879"
     d="m 63.91131,97.28825 0,10.11086 12.416848,0 -1.241686,12.949 -11.175162,3.01553 0,10.46563 20.576492,-5.67628 0.177388,-1.77383 2.305984,-26.43016 0.354767,-2.66075 -2.838139,0 z m 0,-20.22173 0,6.20842 0,3.72506 0,0 24.301545,0 0,0 0,0 0.177388,-2.1286 0.532148,-5.14413 0.177387,-2.66075 z" />
</svg>
