<?xml version="1.0" encoding="UTF-8" standalone="no"?>
<svg
   xmlns:dc="http://purl.org/dc/elements/1.1/"
   xmlns:cc="http://creativecommons.org/ns#"
   xmlns:rdf="http://www.w3.org/1999/02/22-rdf-syntax-ns#"
   xmlns:svg="http://www.w3.org/2000/svg"
   xmlns="http://www.w3.org/2000/svg"
   xmlns:sodipodi="http://sodipodi.sourceforge.net/DTD/sodipodi-0.dtd"
   xmlns:inkscape="http://www.inkscape.org/namespaces/inkscape"
   viewBox="0 0 19 19"
   id="svg3004"
   version="1.1"
   inkscape:version="0.48.4 r9939"
   width="100%"
   height="100%"
   sodipodi:docname="icon-19-userblock.svg">
  <metadata
     id="metadata3020">
    <rdf:RDF>
      <cc:Work
         rdf:about="">
        <dc:format>image/svg+xml</dc:format>
        <dc:type
           rdf:resource="http://purl.org/dc/dcmitype/StillImage" />
        <dc:title>HTML5 Logo Badge</dc:title>
      </cc:Work>
    </rdf:RDF>
  </metadata>
  <defs
     id="defs3018">
    <clipPath
       clipPathUnits="userSpaceOnUse"
       id="clipPath4181">
      <path
         style="opacity:0.5;fill:#ef652a;fill-opacity:1;stroke:none"
         d="M 0,19 19,0 0,0 z"
         id="path4183"
         inkscape:connector-curvature="0" />
    </clipPath>
    <clipPath
       clipPathUnits="userSpaceOnUse"
       id="clipPath4187">
      <path
         style="opacity:0.5;fill:#ef652a;fill-opacity:1;stroke:none"
         d="M 0,19 19,0 0,0 z"
         id="path4189"
         inkscape:connector-curvature="0" />
    </clipPath>
    <clipPath
       clipPathUnits="userSpaceOnUse"
       id="clipPath4193">
      <path
         style="opacity:0.5;fill:#ef652a;fill-opacity:1;stroke:none"
         d="M 0,19 19,0 0,0 z"
         id="path4195"
         inkscape:connector-curvature="0" />
    </clipPath>
    <clipPath
       clipPathUnits="userSpaceOnUse"
       id="clipPath4199">
      <path
         style="opacity:0.5;fill:#ef652a;fill-opacity:1;stroke:none"
         d="M 0,19 19,0 0,0 z"
         id="path4201"
         inkscape:connector-curvature="0" />
    </clipPath>
  </defs>
  <sodipodi:namedview
     pagecolor="#ffffff"
     bordercolor="#666666"
     borderopacity="1"
     objecttolerance="10"
     gridtolerance="10"
     guidetolerance="10"
     inkscape:pageopacity="0"
     inkscape:pageshadow="2"
     inkscape:window-width="640"
     inkscape:window-height="480"
     id="namedview3016"
     showgrid="true"
     inkscape:zoom="16"
     inkscape:cx="16.072491"
     inkscape:cy="5.6763457"
     inkscape:current-layer="svg3004"
     inkscape:object-nodes="true"
     inkscape:snap-smooth-nodes="true"
     inkscape:snap-bbox="true"
     inkscape:snap-global="true">
    <inkscape:grid
       type="xygrid"
       id="grid3041"
       empspacing="4"
       visible="true"
       enabled="true"
       snapvisiblegridlinesonly="true" />
  </sodipodi:namedview>
  <title
     id="title3006">HTML5 Logo Badge</title>
  <path
     style="fill:#848484;fill-opacity:1"
     inkscape:connector-curvature="0"
     id="path4157"
     d="M 3.3740234,16.273439 2.0126954,1 16.987304,1 15.625975,16.273439 9.4833984,18" />
  <path
     style="fill:#9e9e9e;fill-opacity:1"
     inkscape:connector-curvature="0"
     id="path4159"
     d="m 9.5166008,16.671874 4.9472682,-1.361332 1.162106,-13.0820262 -6.1093742,0" />
  <path
     inkscape:connector-curvature="0"
     id="path4169"
     d="M -19,19 0,0 -19,0 z"
     style="opacity:0.5;fill:#ef652a;fill-opacity:1;stroke:none" />
  <path
     d="M 4.1818181,15.259425 3,2 16,2 14.81818,15.259425 9.4855875,16.758315"
     id="path4022"
     inkscape:connector-curvature="0"
     style="fill:#e34f26;fill-opacity:1"
     clip-path="url(#clipPath4181)"
     transform="matrix(1.151893,0,0,1.151893,-1.4429836,-1.3037861)" />
  <path
     d="m 9.5144118,15.605321 4.2949022,-1.181822 1.008866,-11.3569806 -5.3037682,0"
     id="path4024"
     inkscape:connector-curvature="0"
     style="fill:#ef652a;fill-opacity:1"
     clip-path="url(#clipPath4187)"
     transform="matrix(1.151893,0,0,1.151893,-1.4429836,-1.3037861)" />
  <path
     style="fill:#e34f26"
     inkscape:connector-curvature="0"
     id="path3873"
     d="M 31.272727,141.98893 24,60.39246 l 80,0 -7.272737,81.59647 -32.815953,9.22393" />
  <path
     style="fill:#ef652a"
     inkscape:connector-curvature="0"
     id="path3875"
     d="m 64.08869,144.11752 26.430157,-7.27274 6.208416,-69.88913 -32.638573,0" />
  <path
     style="fill:#ebebeb"
     inkscape:connector-curvature="0"
     id="path3877"
     d="m 64.08869,97.28825 -13.303768,0 L 49.898003,87 l 14.190687,0 0,-9.93348 -0.17738,0 -25.011088,0 0.177383,2.66075 2.48337,27.67184 22.527715,0 z m 0,26.07539 -0.17738,0 -11.175168,-3.01553 -0.709535,-7.98226 -5.321506,0 -4.611975,0 1.241686,15.78714 20.576498,5.67628 0.17738,0 z" />
  <path
     style="fill:#ffffff"
     inkscape:connector-curvature="0"
     id="path3879"
     d="m 63.91131,97.28825 0,10.11086 12.416848,0 -1.241686,12.949 -11.175162,3.01553 0,10.46563 20.576492,-5.67628 0.177388,-1.77383 2.305984,-26.43016 0.354767,-2.66075 -2.838139,0 z m 0,-20.22173 0,6.20842 0,3.72506 0,0 24.301545,0 0,0 0,0 0.177388,-2.1286 0.532148,-5.14413 0.177387,-2.66075 z" />
  <path
     style="fill:#ebebeb"
     inkscape:connector-curvature="0"
     id="path4161"
     d="m 9.5166008,7.9062506 -2.4902338,0 -0.1660158,-1.9257819 2.6562496,0 0,-1.8593742 -0.033203,0 -4.6816406,0 0.033202,0.4980463 0.4648435,5.1796862 4.2167966,0 z m 0,4.8808594 -0.033203,0 -2.0917971,-0.564455 -0.1328128,-1.494141 -0.9960932,0 -0.8632814,0 0.232422,2.955081 3.8515625,1.062498 0.033203,0 z" />
  <path
     style="fill:#ffffff;fill-opacity:1"
     inkscape:connector-curvature="0"
     id="path4163"
     d="m 9.4833984,7.9062506 0,1.8925764 2.3242176,0 -0.232422,2.423828 -2.0917956,0.564455 0,1.958983 3.8515606,-1.062498 0.03321,-0.332033 0.431639,-4.9472651 0.06639,-0.4980463 -0.53125,0 z m 0,-3.7851561 0,1.162108 0,0.6972662 0,0 4.5488266,0 0,0 0,0 0.03319,-0.3984364 0.09962,-0.9628915 0.03321,-0.4980463 z" />
</svg>
